<svg id="Layer_1" data-name="Layer 1" xmlns="http://www.w3.org/2000/svg" viewBox="0 0 216 216"><defs><style>.cls-1{fill:#14b1e7;}.cls-2{fill:#13333a;}.cls-3{fill:#f09803;}.cls-4{fill:#4d4d4d;}.cls-5{opacity:0.3;}.cls-6{fill:#fdc650;}.cls-7{fill:#fff;}.cls-8{fill:#f7f7f7;opacity:0.8;}</style></defs><title>ayotree-home-service</title><path class="cls-1" d="M208.24,112.87c-.53-6.12.22-12.32-.52-18.26-.76-6.14-2.22-12.11-3.42-17.93A134.23,134.23,0,0,0,199.8,59c-2.07-5.83-5.78-10.77-8.91-15.88s-5.95-10.61-10.46-14.85c-4.22-4-9.77-6.55-15.44-9.58a86.55,86.55,0,0,0-16.71-6.77c-5.41-1.59-11-4.38-17.48-5.28-5.62-.79-11.76-.79-18.25-1a129,129,0,0,0-18.08.24c-6.15.67-12,2.49-17.61,4A105.43,105.43,0,0,0,60,16.23c-5.56,2.6-10.29,6.26-15.09,9.66A93.92,93.92,0,0,0,31.29,37.37C27.06,41.74,22.88,46,19.66,51S14.17,61.65,12,67.18,7.41,78.34,6.45,84.24a81.91,81.91,0,0,0-.88,18c.36,5.78.65,11.58,1.88,17.09s3.62,10.94,5.72,16.21A114.39,114.39,0,0,0,20.47,151a119.88,119.88,0,0,0,9.6,14.24c3.57,4.47,8.08,8.11,12.22,12s8.88,7.06,13.5,10.39,8.67,7.69,13.7,10.35,10.64,4.32,16,6.25,10.74,4.26,16.31,5.37a82.71,82.71,0,0,0,18.36,1.15A84.24,84.24,0,0,0,138.24,208a88.52,88.52,0,0,0,17-6.63c5.5-2.67,11.25-5.05,16.14-8.72s8.83-8.49,12.94-13a97.89,97.89,0,0,0,11.27-14.38c3.22-5.22,6.72-10.43,8.84-16.14A87.5,87.5,0,0,0,209,131.22C209.91,125.22,208.77,119,208.24,112.87Z"/><path class="cls-2" d="M209.15,112.79c-.53-6.1-.73-12.21-1.46-18.14-.76-6.12-2.26-12.07-3.45-17.87-1.25-6.08-3.77-11.63-5.74-17.21-2.05-5.81-4.06-11.43-7.17-16.54a67.56,67.56,0,0,0-11.1-14.27c-4.2-4-9.48-6.76-15.12-9.8-5-2.69-10.16-5.64-16.41-7.5a124.82,124.82,0,0,0-17.8-3.35c-5.59-.8-12.24-2.1-18.72-2.34-3.16,8.73.21,9.53.13,18.82s0,9.28-.09,18.57.6,9.29.51,18.57S112,71,111.94,80.29s-.53,9.28-.62,18.57,1.37,9.29,1.29,18.58S111.09,126.71,111,136s.8,9.29.72,18.58.11,9.29,0,18.58-1.32,9.27-1.4,18.56-2.41,9.82.24,18.72c5.84.48,12-.8,17.6-1.53s11.6-.81,17-2.67a91.34,91.34,0,0,0,15.69-7.31c5-2.86,9.2-6.87,13.62-10.57s9.66-6.66,13.36-11.07a98.72,98.72,0,0,0,9.88-14.34c2.88-5,4.47-10.7,6.35-16.13s4.19-10.91,4.94-16.63A81.49,81.49,0,0,0,209.15,112.79Z"/><polygon class="cls-3" points="121.03 92.7 103.58 92.87 103.61 98.24 121.13 98.81 121.03 92.7"/><polygon class="cls-3" points="175.41 153.4 161.59 153.24 147.64 153.35 133.69 153.58 119.74 153.41 105.8 153.12 91.85 153.41 77.9 152.93 63.94 153.16 50.07 153.35 49.93 165.01 63.94 165.03 77.88 164.92 91.83 164.81 105.78 164.69 119.73 164.59 133.68 164.85 147.63 164.84 161.58 164.58 175.53 164.93 175.41 153.4"/><polygon class="cls-4" points="44.56 165.14 59.18 164.92 74.2 164.3 89.24 164.51 104.27 164.43 119.29 163.71 134.33 163.93 149.36 163.8 164.39 163.14 179.44 163.72 181.58 179.83 183.93 195.57 169.99 195.67 155.69 195.71 141.38 195.51 127.08 194.95 112.77 194.92 98.47 194.89 84.16 194.73 69.85 195.61 55.54 194.97 41.21 194.89 42.25 179.74 44.56 165.14"/><g class="cls-5"><path d="M181.42,159.59a67.45,67.45,0,0,0-3.78-13c-1.62-4.23-3.15-8.52-5.55-12.29a61.24,61.24,0,0,0-18.9-19.1,67,67,0,0,0-11.65-6.8,66.34,66.34,0,0,0-13-3.6,65.37,65.37,0,0,0-27.15.05,66.73,66.73,0,0,0-13.33,3.91,66.52,66.52,0,0,0-11.79,7.32,67,67,0,0,0-10.51,9,67.58,67.58,0,0,0-8.15,11.19,67.23,67.23,0,0,0-6.12,12.45,68.6,68.6,0,0,0-3,13.67c7.06,2.17,7.42,0,14.8-.2s7.37-.5,14.76-.65,7.38,0,14.76-.21,7.38-.37,14.76-.52,7.39,0,14.77-.1,7.39.11,14.77-.05,7.38-.64,14.76-.8,7.39-.42,14.76.17S174.43,162,181.42,159.59Z"/></g><path class="cls-6" d="M178.54,156.71a67.45,67.45,0,0,0-3.78-13c-1.62-4.23-3.15-8.52-5.55-12.29a61.24,61.24,0,0,0-18.9-19.1,67,67,0,0,0-11.65-6.8,66.34,66.34,0,0,0-13-3.6,65.37,65.37,0,0,0-27.15,0,66.73,66.73,0,0,0-13.33,3.91,66.52,66.52,0,0,0-11.79,7.32,67,67,0,0,0-10.51,9,67.58,67.58,0,0,0-8.15,11.19A67.23,67.23,0,0,0,48.6,145.9a68.6,68.6,0,0,0-3,13.67c7.06,2.17,7.42,0,14.8-.2s7.37-.5,14.76-.65,7.38-.05,14.76-.21,7.38-.37,14.76-.52,7.39,0,14.77-.1,7.39.11,14.77,0,7.38-.64,14.76-.8,7.39-.42,14.76.17S171.55,159.11,178.54,156.71Z"/><path class="cls-6" d="M128.08,94.45a15.92,15.92,0,0,0-5.41-9.68,16.43,16.43,0,0,0-10.54-4,16.12,16.12,0,0,0-10.57,4.52A16.54,16.54,0,0,0,96,95.48c7.8,1.86,8.09-1.07,16.09-.63S120.35,96.56,128.08,94.45Z"/><polygon class="cls-6" points="177.67 164.72 171.91 164.58 174.97 177.94 176.97 191.42 162.3 191.24 147.81 191.77 133.32 190.81 118.82 191.57 104.34 190.35 89.85 190.66 75.35 191.21 60.86 190.29 46.43 190.79 46.07 193.15 61.23 193.3 76.36 193.73 91.5 193.4 106.64 193.43 121.78 193.8 136.93 192.92 152.06 194.37 167.21 193.3 182.42 193.96 180.4 179.24 177.67 164.72"/><path class="cls-3" d="M141.68,112.2a58.34,58.34,0,0,1,18.56,17,56.78,56.78,0,0,1,6.37,11A58.38,58.38,0,0,1,170,152.66c-7.31,2.29-7.72,0-15.37.19s-7.65.29-15.31.45-7.65.11-15.31.27-7.65.3-15.31.46-7.66-.11-15.32.05-7.65.42-15.31.58-7.66-.21-15.29.38c-.15.85-.3,1.49-.4,2.36,7,.29,7-.49,14.06-.64s7,.15,14.06,0,7-.06,14.07-.21,7-.49,14.05-.64,7-.21,14.06-.36,7,0,14.06-.14,7-.08,14.07-.23,7.54,2.38,14.12-.11a57.19,57.19,0,0,0-4.19-13.57,56.72,56.72,0,0,0-6.91-12.29,54.17,54.17,0,0,0-22.18-17Z"/><path class="cls-7" d="M87.94,113.12c7.85,0-9.73,7.78-14.59,16.54C73.35,129.66,78.21,113.12,87.94,113.12Z"/><path class="cls-7" d="M110.41,83.92c3.7,0-4.6,2.75-6.89,5.84C103.52,89.76,105.81,83.92,110.41,83.92Z"/><path class="cls-6" d="M48.45,24.12A2.45,2.45,0,0,0,51.12,22c.68-3.64.58-3.66,1.26-7.3a2.14,2.14,0,0,0-1.68-2.64A2.17,2.17,0,0,0,48.15,14c-.68,3.63-.75,3.62-1.4,7.26A2.54,2.54,0,0,0,48.45,24.12Z"/><path class="cls-6" d="M40.07,69a2.55,2.55,0,0,0-2.92,1.89c-.68,3.64-.41,3.69-1.09,7.33a2.27,2.27,0,0,0,4.46.83c.68-3.64.89-3.6,1.57-7.24A2.53,2.53,0,0,0,40.07,69Z"/><path class="cls-6" d="M60.75,65.91a2.56,2.56,0,0,0-3.44-.49,2.33,2.33,0,0,0-.57,3.24c2.08,3,2,3.12,4,6.16.36.53,1.1.44,1.69.55s1.36.61,1.89.25c1.06-.72.92-2.28.19-3.34C62.61,69.12,62.87,69,60.75,65.91Z"/><path class="cls-6" d="M76.87,50.19c-3.64-.68-3.7-.37-7.34-1a2.2,2.2,0,0,0-2.77,1.55,2.28,2.28,0,0,0,2,2.56c3.64.68,3.59.94,7.23,1.62A2.49,2.49,0,0,0,78.83,53,2.44,2.44,0,0,0,76.87,50.19Z"/><path class="cls-6" d="M64.76,34.34A2.1,2.1,0,0,0,66.42,34c3-2.09,3.09-2,6.13-4.1a2,2,0,0,0,.32-3c-.72-1.06-1.88-1.59-2.94-.86-3,2.08-2.8,2.44-5.84,4.52-1.05.73-1.69,2-1,3C63.49,34.17,64.24,34.24,64.76,34.34Z"/><path class="cls-6" d="M28.25,27a2.25,2.25,0,0,0,3.17.58,2.1,2.1,0,0,0,.45-3.06c-2.09-3-2.16-3-4.25-6-.36-.53-.61-1.33-1.21-1.44a2.77,2.77,0,0,0-1.8.69,2.57,2.57,0,0,0-.89,3.37C25.84,24.13,26.13,23.93,28.25,27Z"/><path class="cls-6" d="M11.94,42.72c3.64.68,3.66.56,7.3,1.24a1.88,1.88,0,0,0,2.34-1.7A2,2,0,0,0,20,39.68C16.4,39,16.39,39,12.75,38.34a2,2,0,0,0-2.36,1.84A2,2,0,0,0,11.94,42.72Z"/><path class="cls-6" d="M24,58.71c-.6-.11-1.39-.42-1.92-.05-3,2.08-2.91,2.27-6,4.35A2.41,2.41,0,0,0,18.86,67l6.07-4.18a2.33,2.33,0,0,0,.53-3.25A2.1,2.1,0,0,0,24,58.71Z"/><path class="cls-6" d="M47.86,27.72a19.28,19.28,0,0,0-14.53,2.72A19.3,19.3,0,0,0,25.53,43,18.79,18.79,0,0,0,40.82,65.42a18.8,18.8,0,0,0,14.3-3.26A18.92,18.92,0,0,0,63.22,50c.71-3.77-.88-9.17-4-13.72S52,28.48,47.86,27.72Z"/><path class="cls-6" d="M127.89,26a1,1,0,0,1,.12,1.11l-1.48,2.72a1,1,0,0,0,1.23,1.36l2.78-1.3a1,1,0,0,1,1.12.25l2.1,2.23a1,1,0,0,0,1.67-.81l-.37-3.09a1,1,0,0,1,.56-1l2.78-1.3a1,1,0,0,0-.25-1.85l-3-.62a1,1,0,0,1-.8-.8l-.37-3a1,1,0,0,0-1.8-.38l-1.48,2.66a1,1,0,0,1-1,.5l-3-.56a1,1,0,0,0-.81,1.61Z"/><path class="cls-6" d="M134.51,59.8a.57.57,0,0,1,.28.6l-.37,1.74a.56.56,0,0,0,.92.55l1.33-1.14a.54.54,0,0,1,.64,0l1.52.92a.55.55,0,0,0,.78-.69l-.69-1.65a.56.56,0,0,1,.14-.64l1.33-1.2a.55.55,0,0,0-.42-1l-1.79.14a.55.55,0,0,1-.55-.32l-.73-1.61a.56.56,0,0,0-1.06.09l-.41,1.75a.55.55,0,0,1-.5.41l-1.75.18A.57.57,0,0,0,133,59Z"/><path class="cls-6" d="M196.52,87.76l-2.72-1.92a1,1,0,0,1-.4-1.2l.88-3.2a1.06,1.06,0,0,0-1.68-1.12l-2.64,2a1,1,0,0,1-1.2,0L186,80.48a1.05,1.05,0,0,0-1.6,1.2l1.12,3.12a1.15,1.15,0,0,1-.32,1.2l-2.64,2.08a1.07,1.07,0,0,0,.64,1.91l3.36-.08a1,1,0,0,1,1,.72l1.11,3.12a1.06,1.06,0,0,0,2-.08l1-3.2a1.12,1.12,0,0,1,1-.72l3.36-.16A1,1,0,0,0,196.52,87.76Z"/><path class="cls-8" d="M182.94,61.1a17.54,17.54,0,0,1-6.65-.69A17.3,17.3,0,0,1,164.9,38.84,17.72,17.72,0,0,1,168.07,33a1.33,1.33,0,0,0-1.19-2.16A19.84,19.84,0,1,0,184,63.3,1.33,1.33,0,0,0,182.94,61.1Z"/></svg>