<svg id="Layer_1" data-name="Layer 1" xmlns="http://www.w3.org/2000/svg" viewBox="0 0 216 216"><defs><style>.cls-1{fill:#aa3cce;}.cls-2{opacity:0.1;}.cls-3{fill:#ff9cce;}.cls-4{fill:none;stroke:#4d4d4d;stroke-linecap:round;stroke-miterlimit:10;stroke-width:7px;}.cls-5{fill:#f09803;}.cls-6{fill:#fdc650;}.cls-7{fill:#4d4d4d;}</style></defs><title>ayotree-icons-</title><path class="cls-1" d="M208.36,110.62c-1.16-5.74-1.28-11.86-3-17.6s-4.12-11.19-6.3-16.69S194.7,65.18,192,60s-6.94-9.78-10.23-14.59c-3.42-5-6.17-10.42-10.13-14.64-4.16-4.42-9.39-7.45-14.13-10.79A67.08,67.08,0,0,0,142,11.69c-5.49-2-11-4.8-17.07-5.16-5.64-.33-11.67.64-17.81,2a152.58,152.58,0,0,0-16.73,4.17c-5.44,1.83-10.57,4.62-15.75,7a154.31,154.31,0,0,0-15.06,8.26c-4.93,3-9.16,6.9-13.6,10.42A127.49,127.49,0,0,0,33.2,49.68c-4,4.18-8.14,8.16-11.39,12.79s-5.67,9.94-8,15.09S8.68,87.88,7.39,93.45a78.11,78.11,0,0,0-2,17.07c0,5.92,0,11.81,1.18,17.36,1.18,5.71,3.61,11.09,5.89,16.37a94.78,94.78,0,0,0,8.11,15.33,108.09,108.09,0,0,0,10.72,13.68c3.93,4.19,8.79,7.48,13.33,11.1s9.54,6.35,14.5,9.33,9.36,7.06,14.63,9.38,11.07,3.64,16.56,5.24,11.16,3.69,16.78,4.5a82.51,82.51,0,0,0,18.51.17,86.27,86.27,0,0,0,18-3.78,92.49,92.49,0,0,0,16.79-7.44c5.42-2.92,11.11-5.54,15.88-9.41s8.58-8.88,12.53-13.55a94.24,94.24,0,0,0,10.74-14.92c3-5.4,6.27-10.83,8.05-16.67A79.12,79.12,0,0,0,211,128.92C211.34,122.84,209.6,116.74,208.36,110.62Z"/><g class="cls-2"><path d="M33.25,119a8.41,8.41,0,0,1-2.17-6.53,8.72,8.72,0,0,1,8.82-7.64h2.24C46.76,77.58,73.9,57.21,105.8,57.21a71.08,71.08,0,0,1,36,9.58,1.65,1.65,0,0,0,.83.23,1.41,1.41,0,0,0,.78-.21,31.94,31.94,0,0,1,16.82-4.41c1.17,0,2.35.05,3.52.14a5.66,5.66,0,0,1,4.72,3.6,5.38,5.38,0,0,1-1.17,5.7,21.65,21.65,0,0,0-6.42,12.35c.51.74,1,1.48,1.48,2.24A60.12,60.12,0,0,0,173,99.15h5.78a9.39,9.39,0,0,1,9.37,9.37v18.14a13.28,13.28,0,0,1-4.46,9.88,114.11,114.11,0,0,1-29.29,18.6,3.3,3.3,0,0,0-1.77,2l-6.82,22.5a6.37,6.37,0,0,1-6.11,4.53h-9.21a6.43,6.43,0,0,1-6.14-4.6l-3.26-11.28a1,1,0,0,0-1-.7h-.2a74.87,74.87,0,0,1-28.23,0h-.19a1,1,0,0,0-1,.7l-3.27,11.24A6.43,6.43,0,0,1,81,184.18h-9.2a6.35,6.35,0,0,1-6.12-4.53l-9.14-30a3.2,3.2,0,0,0-.74-1.27,52.52,52.52,0,0,1-13.62-26.46H39.51A8.5,8.5,0,0,1,33.25,119Z"/></g><path class="cls-3" d="M30.37,116.14a8.41,8.41,0,0,1-2.17-6.53A8.72,8.72,0,0,1,37,102h2.24C43.88,74.7,71,54.33,102.92,54.33a71.08,71.08,0,0,1,36,9.58,1.65,1.65,0,0,0,.83.23,1.41,1.41,0,0,0,.78-.21,31.94,31.94,0,0,1,16.82-4.41c1.17,0,2.35,0,3.52.14a5.66,5.66,0,0,1,4.72,3.6,5.38,5.38,0,0,1-1.17,5.7A21.65,21.65,0,0,0,158,81.31c.51.74,1,1.48,1.48,2.24A60.12,60.12,0,0,0,170.1,96.27h5.78a9.39,9.39,0,0,1,9.37,9.37v18.14a13.28,13.28,0,0,1-4.46,9.88,114.11,114.11,0,0,1-29.29,18.6,3.3,3.3,0,0,0-1.77,2l-6.82,22.5a6.37,6.37,0,0,1-6.11,4.53h-9.21a6.43,6.43,0,0,1-6.14-4.6l-3.26-11.28a1,1,0,0,0-1-.7H117a74.87,74.87,0,0,1-28.23,0H88.6a1,1,0,0,0-1,.7l-3.27,11.24a6.43,6.43,0,0,1-6.26,4.64H68.9a6.35,6.35,0,0,1-6.12-4.53l-9.14-30a3.2,3.2,0,0,0-.74-1.27A52.52,52.52,0,0,1,39.28,119H36.63A8.5,8.5,0,0,1,30.37,116.14Z"/><path class="cls-4" d="M113.56,69.68s-20-9.07-35.38,7"/><path class="cls-5" d="M107.09,22.73a20.11,20.11,0,0,1-1.41,7.67A20.62,20.62,0,0,1,101.47,37a20.54,20.54,0,0,1-14.31,5.9c-2.68,0-5-1.69-7.27-2.66a19,19,0,0,1-6.45-3.83c-1.82-1.82-2.56-4.16-3.56-6.57S66.8,25.4,66.8,22.73s1.37-5.14,2.33-7.47A19.24,19.24,0,0,1,73.42,9a19.74,19.74,0,0,1,6.11-4.68,19.79,19.79,0,0,1,7.63-1.09c2.67,0,5.38-.06,7.71.9a20.36,20.36,0,0,1,6.38,4.52c1.82,1.82,2.33,4.46,3.33,6.87S107.09,20.05,107.09,22.73Z"/><path class="cls-6" d="M104.24,23.16c0,2.67,0,5.53-1,7.86s-3.18,4.3-5,6.12-3.71,4-6.12,5-5.18.79-7.85.79-5-1.15-7.3-2.11a18.82,18.82,0,0,1-6.48-3.85c-1.82-1.82-4.29-3.47-5.29-5.88s-.87-5.23-.87-7.9a20.27,20.27,0,0,1,1.41-7.67A20.54,20.54,0,0,1,70,8.85,20.43,20.43,0,0,1,84.28,3C87,3,89.22,4.64,91.55,5.6A18.85,18.85,0,0,1,98,9.44c1.81,1.82,2.55,4.15,3.55,6.56S104.24,20.48,104.24,23.16Z"/><path class="cls-7" d="M133.84,101.5a6.87,6.87,0,1,0,6.87-6.88h0A6.88,6.88,0,0,0,133.84,101.5Z"/></svg>