<svg id="Layer_1" data-name="Layer 1" xmlns="http://www.w3.org/2000/svg" viewBox="0 0 216 216"><defs><style>.cls-1{fill:#26b3a9;}.cls-2{opacity:0.3;}.cls-3{fill:#4d4d4d;}.cls-4{fill:#fdc650;}</style></defs><title>ayotree-icons-</title><path class="cls-1" d="M19.88,68.87c3.58-4.63,8.45-8.3,12.51-12.69s7.83-8.88,12.22-12.85a176.77,176.77,0,0,1,13.94-11c4.85-3.56,9.12-7.92,14.2-10.77,5.29-3,11.19-4.41,16.62-6.44,5.69-2.12,11.15-4.83,16.88-5.72a69.37,69.37,0,0,1,17.9-.49c5.82.62,11.13,3.56,16.73,5.93a63.71,63.71,0,0,1,15.32,8.59,153.15,153.15,0,0,1,12.49,11.69c4.06,4,8.38,7.83,12,12.28a153.42,153.42,0,0,1,10.12,13.87c3.08,4.88,6.57,9.58,9,14.71A128.78,128.78,0,0,1,206,92.12c1.76,5.53,2.51,11.31,3.37,16.9s1.88,11.48,1.73,17.15-1.69,11.38-3,17a77.07,77.07,0,0,1-5.69,16.13c-2.59,5.32-6.09,9.85-9.59,14.32s-7.09,9.15-11.47,12.87A93.74,93.74,0,0,1,167,196.13a106.64,106.64,0,0,1-15.71,7.15c-5.39,2-10.71,4.45-16.38,5.68s-11.38,2.68-17.14,3.15-11.64-1-17.38-1.27-11.65-.15-17.28-1.14c-5.78-1-11.18-3.2-16.58-5a81.68,81.68,0,0,1-16.8-7.27,85.78,85.78,0,0,1-14.82-10.88A93.27,93.27,0,0,1,22.52,172.9c-3.56-5-5.76-10.87-8.31-16.45s-5.45-11.12-6.92-17.06a95.31,95.31,0,0,1-2.4-18.29c-.31-6.18.85-12.21,1.84-18.24a75.92,75.92,0,0,1,5-17.48C14.16,79.78,16.05,73.81,19.88,68.87Z"/><g class="cls-2"><path class="cls-3" d="M197.39,75.06c.62,6.18-.07,12.67-.74,18.83s-1.35,12.22-3.13,18.19-3.11,12.09-5.82,17.69-6.28,10.76-9.75,15.9a136.61,136.61,0,0,1-11.67,14.46c-4.17,4.65-8.06,9.65-12.74,13.61S143.2,180.89,138,184.07A82.22,82.22,0,0,1,122.3,192c-5.57,1.95-11.56,2-17.33,2.8a90.73,90.73,0,0,1-17.41.94,96.83,96.83,0,0,1-17.29-2.55c-5.7-1.4-11.49-2.66-16.83-5s-10.23-5.78-15-9a88.9,88.9,0,0,1-13.12-11.51c-4.12-4.19-8.91-7.9-12-12.85A79.92,79.92,0,0,1,5.92,138a107,107,0,0,0,6.64,18,98.5,98.5,0,0,0,9.31,16c3.56,5.07,6.72,10.64,11.22,14.92A88.46,88.46,0,0,0,48.19,198c5.24,3.16,11.43,4.42,17.43,6.39,5.4,1.76,10.67,4.39,16.45,5.41a134.68,134.68,0,0,0,17.27,1.71c5.74.26,11.48-.73,17.26-1.21s11.74.27,17.38-.95a122,122,0,0,0,16.69-5c5.45-2,10.35-5.33,15.33-8.19s10.38-5.42,14.78-9.16,7.58-8.71,11.17-13.3a81.05,81.05,0,0,0,9.26-14.53,76.68,76.68,0,0,0,5.69-16.31c1.31-5.64,3-11.3,3.11-17.12s-1.73-11.41-2.66-17.2c-.91-5.64-1.68-11.35-3.49-16.94A134.27,134.27,0,0,0,197.39,75.06Z"/></g><path class="cls-4" d="M194.53,73.35a5.71,5.71,0,0,0-3.17-.24c1.62,5,1.23,4,.58,7.31a6.16,6.16,0,0,0,1-.68c1.18-1.42,1.17-1.42,2.77-1.79a5.47,5.47,0,0,0-.65-4.06A1.09,1.09,0,0,0,194.53,73.35Z"/><path class="cls-4" d="M156.79,136.47a2.11,2.11,0,0,1,.58.25A2.11,2.11,0,0,0,156.79,136.47Z"/><path class="cls-4" d="M155.84,136.79a1.3,1.3,0,0,1,.15-.1A1.3,1.3,0,0,0,155.84,136.79Z"/><path class="cls-4" d="M154.56,137.47h0Z"/><path class="cls-4" d="M202.44,122c0,.18.29.31.51.55.69-4-.38-7.46-1.54-11a15.51,15.51,0,0,0-.69-1.7,4.9,4.9,0,0,0-2.75-2.6,10.36,10.36,0,0,0,1.14,5.3A49.2,49.2,0,0,1,202.44,122Z"/><path class="cls-4" d="M156.3,136.48a.67.67,0,0,1,.2,0A.67.67,0,0,0,156.3,136.48Z"/><path class="cls-4" d="M26.94,104.36h0a11.16,11.16,0,0,1,2.13-.61A11.12,11.12,0,0,0,26.94,104.36Z"/><path class="cls-4" d="M26.94,104.36l0,0,0,0Z"/><path class="cls-4" d="M52.61,71.38h0c.1-.07.24-.13.28-.23C52.85,71.25,52.71,71.31,52.61,71.38Z"/><path class="cls-4" d="M24.21,107.25a12.1,12.1,0,0,1,1.31-1.54A12.1,12.1,0,0,0,24.21,107.25Z"/><path class="cls-4" d="M27,104.29a.25.25,0,0,1,0,.07h0A.25.25,0,0,0,27,104.29Z"/><path class="cls-4" d="M168.67,179h0s0,.08-.07.12S168.64,179,168.67,179Z"/><path class="cls-4" d="M168.41,179.86c0,.15,0,.32.06.56C168.45,180.19,168.43,180,168.41,179.86Z"/><path class="cls-4" d="M155.32,137.4h0l-.13,0,0,.05h0l0-.05.05.06-.05-.06Z"/><path class="cls-4" d="M168.42,179.5a.88.88,0,0,0,0,.23A.88.88,0,0,1,168.42,179.5Z"/><path class="cls-4" d="M168.74,178.75h0a.19.19,0,0,1,0,.08A.22.22,0,0,0,168.74,178.75Z"/><path class="cls-4" d="M155.42,137.29l-.1.11h0Z"/><path class="cls-4" d="M155.15,137.49Z"/><path class="cls-4" d="M168.45,179.38s0-.1.05-.14S168.47,179.34,168.45,179.38Z"/><path class="cls-4" d="M168.67,179h0a.88.88,0,0,1,0-.16l.05.05-.05-.05,0,0h0l0,0Z"/><path class="cls-4" d="M103.79,38.28c0,.1.1.2.14.3h0C103.89,38.48,103.84,38.38,103.79,38.28Z"/><path class="cls-4" d="M96.52,15.32a1.35,1.35,0,0,1,1.54.16c1,.86,2.13.6,3.29.4a25.39,25.39,0,0,1,6-.75c.41,0,.82,0,1.23,0A4.07,4.07,0,0,0,110,15a23,23,0,0,0-8.37-1.42,19.1,19.1,0,0,0-8.15,1.93C94.52,15.48,95.53,15.81,96.52,15.32Z"/><path class="cls-4" d="M206,112.16c.07-3.29.12-6.56-1.23-9.66a12.32,12.32,0,0,1-.53-1.55,7.56,7.56,0,0,1-.32-1.39,90.29,90.29,0,0,1-.78-10.4,8.53,8.53,0,0,0-.17-2c-.88-4-1.86-8-3.08-11.87a31.92,31.92,0,0,1-.89-3.36,14.31,14.31,0,0,0-2.36-5.82c-1.11-1.55-2.06-3.22-3.22-4.73-1.71-2.2-3.56-4.29-5.34-6.45-.82-1-1.54-2.09-2.41-3-2.62-2.87-5.29-5.69-7.94-8.53a8.81,8.81,0,0,1-1.07-1.23c-1.55-2.56-3-5.22-5.3-7.19a3.51,3.51,0,0,1-.5-.65,6.35,6.35,0,0,0-3.1-2.25c-1-.33-1.95-.59-2.93-.9a7.38,7.38,0,0,1-1.15-.38c-2.53-1.2-5-2.45-7.57-3.6A26.19,26.19,0,0,1,149.33,23a7.4,7.4,0,0,0-2.08-1.24c-1.26-.52-2.57-.9-3.85-1.38a13.88,13.88,0,0,1-2.61-1.15,21.76,21.76,0,0,0-6.15-2.56,27.18,27.18,0,0,0-8.25-1.09,14.13,14.13,0,0,1-2.82-.29,17.77,17.77,0,0,1-4.94-1,.42.42,0,0,0-.2,0,50.47,50.47,0,0,1-5.88-.59,23.74,23.74,0,0,1-4.39-.9,14.52,14.52,0,0,0-5.22-.71c-1,0-1.91,0-2.87,0a9.09,9.09,0,0,0-3,.38,13.15,13.15,0,0,1-5,.71,3.78,3.78,0,0,0-1.61.16A4,4,0,0,1,87.07,13a3.32,3.32,0,0,0-4,.63,8.23,8.23,0,0,1-1.59,1.26,17.41,17.41,0,0,0-5,3.75,12,12,0,0,0-1.61.34,68.2,68.2,0,0,0-10,4.62,3,3,0,0,1-1.12.47,6.43,6.43,0,0,0-2.59,1.14,11,11,0,0,1-2.75,1.32A24,24,0,0,0,53,28.69c-1.52.82-3.21,1.47-4.19,3.11A5.56,5.56,0,0,1,47.41,33c-1.38,1.11-2.8,2.17-4.16,3.31a73.82,73.82,0,0,1-6.57,5.13,34.07,34.07,0,0,0-3.42,2.16,26.29,26.29,0,0,0-2.69,3.06,20.43,20.43,0,0,0-4,6.36c-.62,1.72-1.41,3.39-2.16,5.06-.84,1.87-1.74,3.71-2.58,5.57a30.49,30.49,0,0,1-2.34,4.31c-1.14,1.69-2.25,3.4-3.56,5a5.47,5.47,0,0,0-1.5,3.51A6.45,6.45,0,0,1,13.16,80c-2,3.3-3.47,6.8-3.38,10.77A16.73,16.73,0,0,1,9.66,93a9.07,9.07,0,0,0,.07,3,6.33,6.33,0,0,1-.14,2,20.87,20.87,0,0,0-.33,2.2A21,21,0,0,1,8.82,105a4.15,4.15,0,0,0-.12,1.22c.19,5.23-.35,10.47.43,15.72.54,3.56,1.31,7.07,1.91,10.62.35,2.08.83,4.14,1.27,6.2.26,1.19.55,2.38.85,3.56a48.27,48.27,0,0,1,1.52,6.14,18.35,18.35,0,0,0,2,6.38c1,1.92,2,3.85,3,5.78a8.17,8.17,0,0,1,1.23,3.2,3,3,0,0,0,.47,1.12c1.67,2.89,3.33,5.79,5,8.66a16.24,16.24,0,0,0,2.12,3q4.56,4.68,9.29,9.21a24.47,24.47,0,0,0,3.1,2.31c1.06.75,2.14,1.45,3.21,2.18,1.63,1.1,3,2.59,5,3.2a56.8,56.8,0,0,0,7,4.24,30.14,30.14,0,0,0,4.34,2.23c1.54.56,3,1.29,4.53,1.84,2.49.89,4.86,2.12,7.27,3.23a4.62,4.62,0,0,1,1.2.74A14.46,14.46,0,0,0,77.51,208c1.18.5,2.37,1,3.55,1.49,1.37.59,2.72,1.23,4.11,1.78a12.09,12.09,0,0,0,5,.9c2.53-.08,5,0,7.58,0,1.22,0,2.44.25,3.66.23,2.93,0,5.86-.15,8.79-.25.54,0,1.08-.09,1.62-.15.81-.1,1.61-.26,2.42-.3,1.22-.05,2.45,0,3.68,0a9.29,9.29,0,0,0,1.82-.19c1.79-.39,3.58-.84,5.37-1.25.66-.15,1.35-.18,2-.35,1.84-.48,3.67-1,5.51-1.51,1.16-.3,2.27-1,3.56-.47.2.08.52-.11.78-.18,1.24-.39,2.48-.73,3.7-1.17,1.48-.52,2.91-1.17,4.39-1.68a38.19,38.19,0,0,0,8.63-4.58,14.4,14.4,0,0,1,2.06-1.32c1.61-.73,2.85-2.11,4.62-2.59.23-.06.41-.33.61-.52a13.32,13.32,0,0,1,3.21-2.14c1.07-.55,2.32-.88,3.11-1.86a12.31,12.31,0,0,1,4.09-3,7.44,7.44,0,0,0,2.67-2.17,5.38,5.38,0,0,1,1.65-1.5,3.39,3.39,0,0,0,1.6-2,6.1,6.1,0,0,1,1.64-2.55c.52-.54,1-1.08,1.61-1.57a79.21,79.21,0,0,0,6.08-6.35,14.05,14.05,0,0,0,1.72-2.28,97.4,97.4,0,0,0,5-8.92c1.26-2.79,2.67-5.52,3.8-8.37,1.51-3.8,2.86-7.66,4.18-11.54.49-1.47.63-3.06,1.57-4.38a2.4,2.4,0,0,0,.3-1,7.33,7.33,0,0,1,1.08-2.85,6.4,6.4,0,0,0,.66-4.93,5.28,5.28,0,0,0-.32-1.18,2.54,2.54,0,0,1-.07-2.17,2.24,2.24,0,0,0,.15-1c0-2.25,0-4.5-.19-6.74a3.89,3.89,0,0,1,.46-2.52A5.23,5.23,0,0,0,206,112.16Zm-37.23,64.69h0a.28.28,0,0,1,0,.09l-.05,0a.77.77,0,0,0,0,.15h0l-.07.11.07-.11,0-.17Zm-.33,1.12c0,.15,0,.32.06.55C168.45,178.3,168.43,178.12,168.41,178Zm0-.13a.88.88,0,0,1,0-.23A.88.88,0,0,0,168.42,177.84Zm0-.35c0-.05,0-.1.05-.14S168.47,177.44,168.45,177.49Zm16.72-79.18a3.62,3.62,0,0,1-3-1,2.38,2.38,0,0,0-1.91-.53,2.39,2.39,0,0,1-2-.73c-.69-.81-1.59-1.42-1.72-2.67a3.19,3.19,0,0,0-3-3,7.76,7.76,0,0,0-5.18.62A8.83,8.83,0,0,1,163,92.24a5.63,5.63,0,0,0-2.39.4c-1.08.36-1.53.08-2.31-1.16a4.54,4.54,0,0,0,2.49-2.26,14.48,14.48,0,0,0,1.48,0,2.21,2.21,0,0,0,2-1.45,34.07,34.07,0,0,0,1.22-3.22,5.92,5.92,0,0,1,2.23-3.75,2.78,2.78,0,0,1,3.06-.36,5.82,5.82,0,0,0,5.09.3,2.31,2.31,0,0,1,.71,0,4.41,4.41,0,0,1,1.51,5.52,4.78,4.78,0,0,0-.14,1.21c-.18,1.5.81,2.25,2.19,2.33,1.79.11,2,0,3.79-1.71.37.47.71,1,1.1,1.38a5.35,5.35,0,0,0,4.37,1.84c.88,0,1.26-.38,1.29-1.24a18.51,18.51,0,0,1,.25-3.29c.08.26.15.53.23.79a20.29,20.29,0,0,0,.84,2.71,3.18,3.18,0,0,0,3.06,2c.54,0,1.08,0,1.5.06,1.42,1.58,1.21,3.39,1.1,5.15a1.69,1.69,0,0,1-1.61,1.75c-.59-.47-1.3-1-2-1.58a9.5,9.5,0,0,0-4.07-1.76,1.06,1.06,0,0,0-1.19.61c-.35.57-.65,1.17-1,1.81C186.93,98.3,186.05,98.27,185.17,98.31Zm-30,37.24,0,0h0l0,0,.13,0a1.06,1.06,0,0,1,.09-.11,1.06,1.06,0,0,0-.09.11h0l-.13,0,.05.06Zm-.63,0h0Zm1.28-.68a.65.65,0,0,1,.15-.1A.65.65,0,0,0,155.84,134.9Zm.46-.31a.67.67,0,0,1,.2,0A.67.67,0,0,0,156.3,134.59Zm.49,0a2.11,2.11,0,0,1,.58.25A2.11,2.11,0,0,0,156.79,134.58Zm39-56.63c-1.61.37-1.6.37-2.78,1.79a5.58,5.58,0,0,1-1,.68c.65-3.26,1-2.34-.58-7.3a5.61,5.61,0,0,1,3.17.23,1.09,1.09,0,0,1,.56.54A5.52,5.52,0,0,1,195.75,78Zm5,31.93a14.75,14.75,0,0,1,.69,1.7c1.16,3.5,2.23,7,1.54,11-.23-.23-.47-.36-.51-.54a49.06,49.06,0,0,0-3.33-9.42,10.23,10.23,0,0,1-1.14-5.29A4.93,4.93,0,0,1,200.72,109.88Zm-175.2-6.06a12.1,12.1,0,0,0-1.31,1.54A12.1,12.1,0,0,1,25.52,103.82Zm1.42-1.35a.19.19,0,0,0,0-.07.25.25,0,0,1,0,.07h0l0,0Zm0,0a11.77,11.77,0,0,1,2.14-.6,11.05,11.05,0,0,0-2.14.61Zm26-33.21c0,.1-.18.16-.28.23h0C52.71,69.42,52.85,69.36,52.89,69.26Zm51-30.68c0-.1-.09-.2-.14-.3,0,.1.1.2.14.3Zm-2.26-25A23,23,0,0,1,110,15a4.07,4.07,0,0,1-1.44.15c-.41,0-.82,0-1.23,0a25.45,25.45,0,0,0-6,.75c-1.16.2-2.27.46-3.29-.4a1.35,1.35,0,0,0-1.54-.16c-1,.49-2,.16-3,.18A19.1,19.1,0,0,1,101.67,13.57ZM158.4,195.4c-3.44,1.9-6.9,3.76-10.31,5.71a64.1,64.1,0,0,1-8.43,3.66,2.13,2.13,0,0,1-.78.24,11.52,11.52,0,0,0-4.31,1.13c-1.35.46-2.77.72-4.16,1.06-1,.27-2.13.48-3.16.83a8.92,8.92,0,0,1-2.4.39c-1.21.09-2.42.28-3.63.45-1.94.27-3.89.57-5.83.85-.54.07-1.08.12-1.62.2l-2.41.32a12.69,12.69,0,0,1-1.62.16l-19.85,0c-.68,0-.67,0-2-.72a6.3,6.3,0,0,0-2.08-.76,13,13,0,0,1-4.46-1.34,64.3,64.3,0,0,0-7.44-2.75,12.9,12.9,0,0,1-5.93-3.42,7.28,7.28,0,0,0-3-1.63,33.56,33.56,0,0,1-7.77-3.57,6.3,6.3,0,0,0-1.22-.72,19.12,19.12,0,0,1-4.75-2.77,3.87,3.87,0,0,0-1-.68c-2.06-.69-3.57-2.23-5.29-3.43-1-.66-1.94-1.27-2.9-1.91a16.13,16.13,0,0,1-1.51-1A77,77,0,0,1,34,179.75a25.8,25.8,0,0,0-2-2,28.77,28.77,0,0,1-4.82-6c-2.85-4.18-4.82-8.85-7.11-13.34a3,3,0,0,1-.31-.75c-.36-1.91-1.48-3.5-2.13-5.28a12.9,12.9,0,0,1-.84-2.5c-.37-2.71-1.35-5.28-1.85-7.95-.39-2.08-.92-4.12-1.35-6.19q-1.14-5.59-2.25-11.19c-.13-.67-.2-1.35-.27-2a6.94,6.94,0,0,0-.09-1.22,16.65,16.65,0,0,1-.43-5.07c0-2.46,0-4.91,0-7.37,0-.61,0-1.23,0-1.84.11-1.22.32-2.43.42-3.65s.11-2.27.16-3.43c.53.16.53.54.59.85a41.8,41.8,0,0,1,1,8.71,17,17,0,0,0,2,7.61,9.48,9.48,0,0,0,1.47,2,38.48,38.48,0,0,0,3.4,4.06,21.46,21.46,0,0,0,3.11,2.29c1.93,1.13,3.91,2.18,5.88,3.26.11.07.26.17.37.14,1.9-.49,2.55,1.27,3.6,2.15a24.14,24.14,0,0,1,3,3.58,6.93,6.93,0,0,0,2.83,2.28c.2.07.4.24.57.21,1.43-.25,2.63.57,4,.83a14.75,14.75,0,0,1,2.34.73c2.78,1.08,4,3.32,4.46,6.09a2.28,2.28,0,0,1-.59,1.89,33,33,0,0,0-2.18,2.95,4.78,4.78,0,0,0-.74,3.51,4.71,4.71,0,0,0,.85,2.6,8.55,8.55,0,0,1,1,2,10.62,10.62,0,0,0,2.46,3.22c.63.62,1.3,1.2,1.94,1.82a18,18,0,0,0,4.1,3.34A40.57,40.57,0,0,1,61.1,169a9.79,9.79,0,0,1,3.43,4c1.25,2.8,2.59,5.56,3.83,8.35a14.53,14.53,0,0,0,1.92,3.13c.84,1.07,1.64,2.17,2.47,3.26a24,24,0,0,0,3.71,3.77,37.58,37.58,0,0,1,6.11,6c.89,1.21,1.7,2.46,2.57,3.69a3.71,3.71,0,0,0,.78.93,30.45,30.45,0,0,1,4.44,4.2c1.31,1.38,3,2.11,4.53,3.11a3.71,3.71,0,0,0,3,0,1.31,1.31,0,0,0,.63-1,7.73,7.73,0,0,0-.77-4.77c-1.06-2-2.11-4-3.2-5.93-.29-.53-.69-1-1-1.52-.66-1-1.32-2.06-1.94-3.11a1.71,1.71,0,0,1-.17-.78c0-.48,0-1,0-1.44-.36-3.47,1.44-5.65,4.28-7.22.42-.23.85-.43,1.29-.62,1.82-.8,3-2.36,4.24-3.77a4.44,4.44,0,0,0,.87-3.09,4.56,4.56,0,0,1,.6-2.6c.81-.27,1.64-.59,2.48-.83,2.85-.82,4.58-2.9,5.85-5.37.92-1.81,1.63-3.75,2.38-5.65a6.54,6.54,0,0,0-.09-5.17,8.88,8.88,0,0,0-1.4-2.7c-1.57-1.69-3.26-3.16-5.81-3.44a43.57,43.57,0,0,0-5.48-.48c-2.15,0-3.92-1-5.66-2.08-1.15-.72-2.24-1.55-3.36-2.33a6,6,0,0,1-1.91-2.08,5.65,5.65,0,0,0-3-2.63c-2.46-1-4.9-2-7.37-3-.56-.23-1.19-.29-1.77-.47a9.14,9.14,0,0,1-3.71-2c-.74-.71-1.53-1.36-2.29-2a4.22,4.22,0,0,0-3-1.1c-2,0-4.1,0-6.15,0a5.14,5.14,0,0,1-2.55-.55c-1.42-.75-2.93-.5-4.41-.27a2.36,2.36,0,0,0-1.61,1.17c-.45.75-.87,1.52-1.39,2.43l-2.64.75a6.52,6.52,0,0,1-.58-.8,1.87,1.87,0,0,0-1.94-1.2,1.82,1.82,0,0,1-.6-.09,2.78,2.78,0,0,1-2.34-2.93c-.06-1.16,0-2.32,0-3.48a2.37,2.37,0,0,0-1.92-2.52c-.85-.25-1.72-.44-2.56-.72a5.39,5.39,0,0,1-2.53-1.73,3.71,3.71,0,0,1,1.15-2.06,2.93,2.93,0,0,0,.77-3,1.24,1.24,0,0,0-1-1.13c-2.17-.33-4.26-.32-5.68,1.77-.8,1.17-2.09,1.72-3.21,2.49a1.73,1.73,0,0,1-2.19-.57,11.46,11.46,0,0,1-2.52-7c0-1.15,0-2.32,0-3.47.15-2.66,1.81-4.31,3.87-5.67a15.85,15.85,0,0,1,2.83-.09A12.21,12.21,0,0,1,36,105.46a3.94,3.94,0,0,1,2,2.46,2.83,2.83,0,0,0,3.2,2.23c.68-.07,1.37,0,2-.06a2.6,2.6,0,0,0,2.57-2.86c0-2.12.09-4.24,0-6.35a2.94,2.94,0,0,1,1.89-3c1.33-.68,2.59-1.5,3.85-2.31a8.19,8.19,0,0,0,3.9-6.6,2.66,2.66,0,0,1,.15-1c1-1.91,1.64-4,3-5.8a1.36,1.36,0,0,1,1.54-.69,1.57,1.57,0,0,0,.8,0c2.21-.83,4.57-1.19,6.6-2.6A7.16,7.16,0,0,0,70,75.27a28.43,28.43,0,0,0,1.07-3.51,1.48,1.48,0,0,1,1.44-1.21,8.37,8.37,0,0,1,5.83,1.39,15.74,15.74,0,0,0,4.26,1.94,7.43,7.43,0,0,0,5.17-.6,2,2,0,0,0,1.13-1.8,10.74,10.74,0,0,0-2.68-8.32,45.44,45.44,0,0,1-4.29-6.68c-.34-.59-.71-1.16-1.1-1.71a3.48,3.48,0,0,0-3.3-1.64,26.8,26.8,0,0,0-3.45.31,13.32,13.32,0,0,1-3.46.15,3,3,0,0,1-2.35-1.46,26.32,26.32,0,0,1-1.81-3A3.43,3.43,0,0,0,63.06,47a10.09,10.09,0,0,0-4.79.77,4.12,4.12,0,0,0-2.52,3.66,7.09,7.09,0,0,0,.34,3,2.55,2.55,0,0,1,.1,1.4,22.14,22.14,0,0,1-2.63,7.26,6,6,0,0,1-.88,1.13,1.06,1.06,0,0,1-1.83-.3,5.67,5.67,0,0,1-.47-1.76,8.53,8.53,0,0,0-2-4.8c-1.44-1.66-2.84-3.32-4.92-4.21a3.09,3.09,0,0,1-.59-.48A1.85,1.85,0,0,1,44,50.87c.55-.28,1.14-.47,1.67-.78a10.9,10.9,0,0,0,4-3.45,10.28,10.28,0,0,1,4.76-4,33.2,33.2,0,0,1,5.49-2.18,6.64,6.64,0,0,0,2.92-1.65,3.5,3.5,0,0,0,.39-4.92,3.7,3.7,0,0,1-.64-3.08.84.84,0,0,1,.75-.85,1.73,1.73,0,0,1,1.11.27,6.07,6.07,0,0,1,1,1.3,20.58,20.58,0,0,0,1.29,2.07A12.61,12.61,0,0,0,68.31,35a4,4,0,0,1-.61,3.53,4.79,4.79,0,0,0-.77,2.9c0,1.3,0,2.59.07,3.89a3,3,0,0,0,1.73,2.59,2,2,0,0,0,2.13-.11c1.29-.76,2.62-1.46,3.91-2.21a8.68,8.68,0,0,1,3-1.14,6,6,0,0,0,3.13-1.4,1.66,1.66,0,0,0,.23-2.65A4,4,0,0,0,80,39.61a9.11,9.11,0,0,0-1.19-.42c.28-.23.5-.38.69-.56,1.79-1.74,1.52-3.82-.65-5-.65-.36-1.34-.66-2-1a8.54,8.54,0,0,1-1-.64,1.78,1.78,0,0,1-.75-1.39,1.48,1.48,0,0,1,0-.21c-.23-2.63-.23-2.63,2-4.13L80.36,24a7,7,0,0,0,5.49,1.35l2.83,1.84a8.25,8.25,0,0,1,.81.62A11.8,11.8,0,0,1,92.29,34a4.81,4.81,0,0,1-1,2.83,8.93,8.93,0,0,0-1.25,7.61,6.37,6.37,0,0,0,1.62,2.77,20.34,20.34,0,0,0,3,2.76,8.75,8.75,0,0,0,8.15,1.18,5.55,5.55,0,0,0,3-3.14c.54-1,1-2.1,1.47-3.15a6,6,0,0,1,.46-.91c1.77-2.69,1.47-2.62,4.54-2.5a5.73,5.73,0,0,0,3-.62A13.15,13.15,0,0,0,119.49,38a4.43,4.43,0,0,1,1.73-1c.88-.36,1.84-.54,2.71-.91,1.94-.85,2.29-1.71,1.79-3.73a15.92,15.92,0,0,0-3-6.19,1.36,1.36,0,0,1-.42-1.28,2.32,2.32,0,0,0-.45-1.74c-.36-.58-.68-1.18-1.08-1.74-1-1.33-1.25-3-2.09-4.33.19-.49.58-.35.88-.35,1.48,0,3-.21,4.45.36a3.92,3.92,0,0,0,1.42.08c1.23,0,2.46,0,3.68,0a4.17,4.17,0,0,1,1.42.12,43.33,43.33,0,0,0,5.69,1.5,3.54,3.54,0,0,1,.73.36,58,58,0,0,0,8.48,3.51A5.53,5.53,0,0,1,148.69,25a3.58,3.58,0,0,0,1.08.91A23.54,23.54,0,0,0,156,29a13.89,13.89,0,0,1,4,2c.21.15.39.35.73.66-.42.18-.7.33-1,.42a3.6,3.6,0,0,0-2.5,3.16,3.49,3.49,0,0,1-.07.81,5.11,5.11,0,0,0,.28,4.33,8.16,8.16,0,0,1,.27,2.69c-.86.91-1.61,1.7-2.34,2.49a2.68,2.68,0,0,0-.69,2.28c.22,1.47.35,3,1.74,4,1.59,1.15,3.19,1.46,4.91.31a3.35,3.35,0,0,1,.55-.23c.86.14,1.24.82,1.68,1.42s.65,1,1,1.52a3.51,3.51,0,0,0,5.87-.12,13.71,13.71,0,0,0,.89-1.6,5.8,5.8,0,0,1,2.42,3.66,3.44,3.44,0,0,1,.13,1,1.34,1.34,0,0,1-1.42,1.4c-.95,0-1.91,0-2.87,0l-1.63,0a1.72,1.72,0,0,0-1.66,1,10.53,10.53,0,0,1-2.51,2.93,13.68,13.68,0,0,0-1,1.23c-.31.37-1,.58-1.26.23-.62-1-1.55-.69-2.24-.8a10.49,10.49,0,0,0-1.65-1.89,9.25,9.25,0,0,1-3.27-4.34c-.48-1.2-1-2.38-1.5-3.58a1.83,1.83,0,0,0-1.6-1.35,4,4,0,0,1-1.47-.62,3.18,3.18,0,0,0-3.3.09,1.28,1.28,0,0,0-.7,1.55,4.74,4.74,0,0,0,1.14,2.14,17.49,17.49,0,0,1,1.17,1.41,1.08,1.08,0,0,1,.06,1.34,1,1,0,0,1-1.27.35c-.31-.1-.6-.24-.92-.38a3.58,3.58,0,0,0-1.37,2.7,31.08,31.08,0,0,0,0,3.48,1.53,1.53,0,0,0,1.51,1.62,39.86,39.86,0,0,0,4.09,0,.93.93,0,0,0,1-1c0-.66-.11-1.33-.17-2,.37-.23.47.09.48.31,0,.54-.07,1.09,0,1.63A1.76,1.76,0,0,0,153.17,67a19.34,19.34,0,0,1,2,.37,3.39,3.39,0,0,0,3.06-.73,5.35,5.35,0,0,0,.94-1.52c.58.9-.08,1.76.09,2.54a3,3,0,0,1-1.95,1.15c-.66.15-1.32.33-2,.52a3,3,0,0,0-2.19,2.86,1.59,1.59,0,0,0,.81,1.54c.83.47,1.65,1,2.51,1.36,1.38.66,1.6,1.41.73,2.73a5.3,5.3,0,0,1-.57.6,9.9,9.9,0,0,1-4.05-.26,3,3,0,0,0-1.4-.05,1.18,1.18,0,0,0-.79.55,12.19,12.19,0,0,0-.77,2.52A3.45,3.45,0,0,0,150.5,84a6.12,6.12,0,0,1,1.62,4.7,3.12,3.12,0,0,0,0,.61,1.43,1.43,0,0,0,1.4,1.48c.38.07.78.08,1.2.12,0,.85,0,1.59,0,2.33a5.3,5.3,0,0,1-.93,2.87,13.62,13.62,0,0,1-4.33,4.54,40.25,40.25,0,0,0-3.84,2.7,7.6,7.6,0,0,0-2.39,3,38.65,38.65,0,0,1-3.55,6.42,2.87,2.87,0,0,0-.47.9,15.11,15.11,0,0,0-.58,6.83,33.6,33.6,0,0,1,.14,6.11,1.64,1.64,0,0,1-.14.6c-.61,1.8-1.3,3.58-1.82,5.42a10.85,10.85,0,0,0,.29,7.59,5.84,5.84,0,0,0,1.61,2.08,16.93,16.93,0,0,0,12.58,3.79,5.93,5.93,0,0,0,1.92-.63,70.67,70.67,0,0,1,8-3.05,8.46,8.46,0,0,1,7.21,1.12c2.83,1.7,2.92,1.92,2.91,5.22,0,.82,0,1.64,0,2.46a5.78,5.78,0,0,1-.55,2.78,5.36,5.36,0,0,0-.47,2.59c0,1.91,0,3.82,0,5.73a3.46,3.46,0,0,1-.76,2.25,13.32,13.32,0,0,1-3,3.08,5.18,5.18,0,0,0-2.41,4.89c.08.81,0,1.64,0,2.45a6.17,6.17,0,0,1-.91,3.71,37.23,37.23,0,0,1-3.51,5.25,60.3,60.3,0,0,0-4.15,6,6.1,6.1,0,0,0-.5,1.64c.4.46.79.92,1.2,1.37a1.52,1.52,0,0,0,1.23.61c.74-.06,1.23.42,1.79.73C159.3,195,158.8,195.18,158.4,195.4Z"/><path class="cls-4" d="M62.85,119.52c-2.24,0-4.49,0-6.74,0-3.26.06-3.67-.22-5.6-2.2a3.23,3.23,0,0,0-1.68-1.06c-1.66-.14-3.34-.54-5,.18-1.32.57-1.89,1.27-1.58,2.61a5.84,5.84,0,0,0,.84,1.83c1.24,1.85,3.22,2.38,5.26,2.67a17.74,17.74,0,0,1,2.6.39,12.07,12.07,0,0,0,1.82.2c.73.1,1.47.19,2.2.33,1.46.28,2.87.88,4.43.63a7.66,7.66,0,0,0,4.87-1,4.74,4.74,0,0,0,1.25-1,1.93,1.93,0,0,0-.35-2.88A3.39,3.39,0,0,0,62.85,119.52Z"/><path class="cls-4" d="M133.65,40.85a5.6,5.6,0,0,0-4.08.84,3.92,3.92,0,0,1-4,.33l-.8-.29c-.76.41-1.37.7-1.93,1.07a2.5,2.5,0,0,0-.81.87c-.74,1.38.38,4,2.28,3.87a45.47,45.47,0,0,1,4.67,0,9,9,0,0,0,3.76-.7c2.06-.85,2.34-1.2,2.34-3.49a8.17,8.17,0,0,0,0-1.21A1.38,1.38,0,0,0,133.65,40.85Z"/><path class="cls-4" d="M48.06,179a4.93,4.93,0,0,0-.35,1.25c0,.79.18,1.59.28,2.38a2.17,2.17,0,0,0,.17.78,1,1,0,0,0,.58.4c.09,0,.34-.23.37-.39a5.34,5.34,0,0,0-.38-3.71A5.42,5.42,0,0,0,48.06,179Z"/><path class="cls-4" d="M130.65,197.21c-.51.85-1,1.74-1.42,2.62l.33.23a7,7,0,0,0,2-2.48c.14-.3.06-.59-.23-.64A.77.77,0,0,0,130.65,197.21Z"/><path class="cls-4" d="M42.19,176.49A3.7,3.7,0,0,0,43.24,179c.13.1.48,0,.69-.1s.08-.41,0-.52C43.41,177.75,42.85,177.19,42.19,176.49Z"/><path class="cls-4" d="M17.94,139.14c.13.06.2.11.25.1s.09-.09.1-.15a3.28,3.28,0,0,0-.32-2.5A3.51,3.51,0,0,0,17.94,139.14Z"/><path class="cls-4" d="M106.44,124.37a7.51,7.51,0,0,0,1.74-2.71C106.27,122.92,106.08,123.23,106.44,124.37Z"/><path class="cls-4" d="M112.55,48.54a14.94,14.94,0,0,0-1.45.94l.09.43a14.53,14.53,0,0,0,1.62-.11.91.91,0,0,0,.53-.46.61.61,0,0,0-.11-.54C113.05,48.64,112.7,48.46,112.55,48.54Z"/><path class="cls-4" d="M38,171.88c-.17.18-.43.33-.48.54a2,2,0,0,0,0,1,.56.56,0,0,0,.43.33.61.61,0,0,0,.44-.31,1.75,1.75,0,0,0,.12-.54c0-.17,0-.33-.07-.43A4,4,0,0,0,38,171.88Z"/><path class="cls-4" d="M117,204.17c1.67-.52,1.83-.75,1.46-1.86Z"/><path class="cls-4" d="M106.91,52.62l0,0,0,0A.22.22,0,0,0,106.91,52.62Z"/><path class="cls-4" d="M108.07,51.49c-.73.19-1.19.44-1.16,1.13A2.78,2.78,0,0,0,108.07,51.49Z"/><path class="cls-4" d="M133.73,110a.36.36,0,0,0,.2.28c.08,0,.28-.09.29-.16.05-.31.05-.63.07-.94l-.34-.07C133.87,109.41,133.78,109.7,133.73,110Z"/><path class="cls-4" d="M106.18,54.12l.66-1.4C106.28,52.79,106.08,53.13,106.18,54.12Z"/><path class="cls-4" d="M106.87,52.66l0,.05h.07Z"/><path class="cls-4" d="M135.69,107.17l.13,0-.17-.13A1.16,1.16,0,0,0,135.69,107.17Z"/><path class="cls-4" d="M123.91,201c-.06.07-.18.14-.18.22s.1.16.16.25a2,2,0,0,0,.13-.34S124,201.06,123.91,201Z"/><path class="cls-4" d="M168.75,178.83a.25.25,0,0,0,0-.08l0,0Z"/></svg>